<?xml version="1.0" encoding="iso-8859-1"?>
<!-- Uploaded to: SVG Repo, www.svgrepo.com, Generator: SVG Repo Mixer Tools -->
<!DOCTYPE svg PUBLIC "-//W3C//DTD SVG 1.1//EN" "http://www.w3.org/Graphics/SVG/1.1/DTD/svg11.dtd">
<svg height="800px" width="800px" version="1.1" id="Capa_1" xmlns="http://www.w3.org/2000/svg" xmlns:xlink="http://www.w3.org/1999/xlink" 
	 viewBox="0 0 460.001 460.001" xml:space="preserve">
<g id="XMLID_977_">
	<g id="XMLID_794_">
		<path id="XMLID_1958_" style="fill:#3DBCE5;" d="M297.517,255.938l153.496,153.495c11.774,11.774,12.011,30.626,0.529,42.108l0,0
			c-11.482,11.482-30.335,11.245-42.109-0.529L255.938,297.517"/>
	</g>
	<path id="XMLID_240_" style="opacity:0.49;fill:#D0D5D9;" d="M456.928,425.692L456.928,425.692
		c-11.482,11.482-30.335,11.245-42.109-0.529L271.556,281.9l-15.618,15.618l153.496,153.495
		c11.774,11.774,30.627,12.011,42.109,0.529v0c7.571-7.571,10.044-18.345,7.477-28.183
		C458.371,424.165,457.675,424.945,456.928,425.692z"/>
	<g id="XMLID_868_">
		<path id="XMLID_3101_" style="fill:#86C867;" d="M140.27,197.833c-4.283,0-7.755-3.472-7.755-7.755v-70.02
			c0-4.283,3.472-7.755,7.755-7.755c4.283,0,7.755,3.472,7.755,7.755v70.02C148.025,194.36,144.553,197.833,140.27,197.833z"/>
	</g>
	<g id="XMLID_869_">
		<path id="XMLID_3098_" style="fill:#86C867;" d="M195.295,197.833h-10.024c-12.544,0-22.749-10.205-22.749-22.749v-40.033
			c0-12.544,10.205-22.749,22.749-22.749h10.024c12.544,0,22.749,10.205,22.749,22.749v40.033
			C218.044,187.627,207.839,197.833,195.295,197.833z M185.272,127.813c-3.991,0-7.238,3.247-7.238,7.238v40.033
			c0,3.991,3.247,7.238,7.238,7.238h10.024c3.991,0,7.238-3.247,7.238-7.238v-40.033c0-3.991-3.247-7.238-7.238-7.238H185.272z"/>
	</g>
	<g id="XMLID_871_">
		<path id="XMLID_3097_" style="fill:#86C867;" d="M240.298,197.833c-4.283,0-7.755-3.472-7.755-7.755v-70.02
			c0-4.283,3.472-7.755,7.755-7.755c4.283,0,7.755,3.472,7.755,7.755v70.02C248.053,194.36,244.581,197.833,240.298,197.833z"/>
	</g>
	<g id="XMLID_880_">
		<path id="XMLID_3096_" style="fill:#86C867;" d="M100.258,197.833c-4.283,0-7.755-3.472-7.755-7.755v-70.02
			c0-4.283,3.472-7.755,7.755-7.755s7.755,3.472,7.755,7.755v70.02C108.014,194.36,104.542,197.833,100.258,197.833z"/>
	</g>
	<g id="XMLID_874_">
		<path id="XMLID_3095_" style="fill:#86C867;" d="M410.345,197.833c-4.283,0-7.755-3.472-7.755-7.755v-70.02
			c0-4.283,3.472-7.755,7.755-7.755s7.755,3.472,7.755,7.755v70.02C418.1,194.36,414.628,197.833,410.345,197.833z"/>
	</g>
	<g id="XMLID_873_">
		<path id="XMLID_3094_" style="fill:#86C867;" d="M370.334,197.833c-4.283,0-7.755-3.472-7.755-7.755v-70.02
			c0-4.283,3.472-7.755,7.755-7.755s7.755,3.472,7.755,7.755v70.02C378.089,194.36,374.617,197.833,370.334,197.833z"/>
	</g>
	<g id="XMLID_872_">
		<path id="XMLID_3093_" style="fill:#86C867;" d="M285.487,197.833h-0.677c-12.274,0-22.259-9.986-22.259-22.26v-41.011
			c0-9.519,6.058-17.981,15.075-21.058c4.055-1.383,8.462,0.783,9.844,4.835c1.383,4.054-0.782,8.461-4.835,9.844
			c-2.735,0.933-4.573,3.496-4.573,6.378v41.011c0,3.722,3.027,6.749,6.749,6.749h0.677c4.283,0,7.755,3.472,7.755,7.755
			C293.242,194.36,289.77,197.833,285.487,197.833z"/>
	</g>
	<g id="XMLID_870_">
		<path id="XMLID_3092_" style="fill:#86C867;" d="M55.746,197.833H44.743c-0.439,0-0.87-0.024-1.302-0.055l-0.156-0.011
			c-4.274-0.28-7.511-3.973-7.231-8.246c0.28-4.274,3.978-7.521,8.246-7.231l0.489,0.032l10.957-0.001
			c3.721,0,6.749-3.027,6.749-6.749v-41.011c0-3.722-3.027-6.749-6.749-6.749h-6.279c-4.283,0-7.755-3.472-7.755-7.755
			s3.472-7.755,7.755-7.755h6.279c12.274,0,22.259,9.986,22.259,22.26v41.011C78.006,187.847,68.02,197.833,55.746,197.833z"/>
	</g>
	<g id="XMLID_1784_">
		<path id="XMLID_5_" style="fill:#3C5768;" d="M281.066,48.224c-64.298-64.298-168.545-64.298-232.843,0
			c-64.298,64.298-64.298,168.545,0,232.843s168.545,64.298,232.843,0S345.364,112.521,281.066,48.224z M251.961,251.961
			c-48.223,48.223-126.409,48.223-174.632,0c-48.223-48.223-48.223-126.409,0-174.632s126.409-48.223,174.632,0
			S300.184,203.738,251.961,251.961z"/>
	</g>
	<g id="XMLID_1994_" style="opacity:0.49;">
		<path id="XMLID_1995_" style="fill:#D0D5D9;" d="M281.066,48.224C249.552,16.71,208.441,0.652,167.141,0.03
			c35.113,4.353,69.093,20.002,96.05,46.959c64.298,64.298,64.298,168.545,0,232.843c-32.784,32.784-75.953,48.841-118.917,48.194
			c48.639,6.03,99.452-9.618,136.793-46.959C345.364,216.769,345.364,112.521,281.066,48.224z"/>
		<path id="XMLID_1996_" style="fill:#D0D5D9;" d="M147.162,286.89c-25.55-3.634-50.18-15.275-69.834-34.928
			c-48.223-48.223-48.223-126.409,0-174.632c24.012-24.012,55.451-36.063,86.922-36.163c-37.142-5.283-76.228,6.358-104.798,34.928
			c-48.223,48.223-48.223,126.409,0,174.632C83.665,274.938,115.429,286.99,147.162,286.89z"/>
	</g>
</g>
</svg>